<?xml version="1.0" encoding="UTF-8" standalone="no"?>
<!-- Created with Inkscape (http://www.inkscape.org/) -->

<svg
   width="104.32375mm"
   height="53.404263mm"
   viewBox="0 0 104.32375 53.404263"
   version="1.1"
   id="svg1"
   xml:space="preserve"
   inkscape:version="1.4.1 (93de688d07, 2025-03-30)"
   sodipodi:docname="app_downloader_logo.svg"
   inkscape:export-filename="app_downloader_splash.png"
   inkscape:export-xdpi="96"
   inkscape:export-ydpi="96"
   xmlns:inkscape="http://www.inkscape.org/namespaces/inkscape"
   xmlns:sodipodi="http://sodipodi.sourceforge.net/DTD/sodipodi-0.dtd"
   xmlns="http://www.w3.org/2000/svg"
   xmlns:svg="http://www.w3.org/2000/svg"><sodipodi:namedview
     id="namedview1"
     pagecolor="#505050"
     bordercolor="#eeeeee"
     borderopacity="1"
     inkscape:showpageshadow="0"
     inkscape:pageopacity="0"
     inkscape:pagecheckerboard="0"
     inkscape:deskcolor="#505050"
     inkscape:document-units="mm"
     inkscape:zoom="1.4235832"
     inkscape:cx="208.27725"
     inkscape:cy="85.348015"
     inkscape:window-width="1920"
     inkscape:window-height="1008"
     inkscape:window-x="0"
     inkscape:window-y="0"
     inkscape:window-maximized="1"
     inkscape:current-layer="layer1" /><defs
     id="defs1" /><g
     inkscape:label="Layer 1"
     inkscape:groupmode="layer"
     id="layer1"
     transform="translate(-73.021675,-129.72653)"><rect
       style="fill:#111111;fill-opacity:1;stroke-width:0.908934;paint-order:stroke markers fill"
       id="rect1"
       width="104.32375"
       height="53.404263"
       x="73.021675"
       y="129.72653"
       ry="5.5196805" /><g
       id="g3"
       transform="translate(1.5135535,1.582753)"><text
         xml:space="preserve"
         style="font-style:normal;font-variant:normal;font-weight:normal;font-stretch:normal;font-size:10.7902px;font-family:'Varela Round';-inkscape-font-specification:'Varela Round, Normal';font-variant-ligatures:normal;font-variant-caps:normal;font-variant-numeric:normal;font-variant-east-asian:normal;text-align:start;writing-mode:lr-tb;direction:ltr;text-anchor:start;fill:#ffffff;fill-opacity:1;stroke-width:0.461337;paint-order:stroke markers fill"
         x="80.304184"
         y="172.72774"
         id="text1"><tspan
           sodipodi:role="line"
           id="tspan1"
           style="font-style:normal;font-variant:normal;font-weight:normal;font-stretch:normal;font-size:10.7902px;font-family:'Varela Round';-inkscape-font-specification:'Varela Round, Normal';font-variant-ligatures:normal;font-variant-caps:normal;font-variant-numeric:normal;font-variant-east-asian:normal;stroke-width:0.461337"
           x="80.304184"
           y="172.72774">App Downloader</tspan></text><path
         id="path5"
         style="stroke:#ffffff;stroke-width:1.86886;stroke-dasharray:none;stroke-opacity:1"
         d="m 127.40771,141.32264 v -2.80329 c 0,-1.03214 -0.8367,-1.86886 -1.86885,-1.86886 h -3.73772 c -1.03215,0 -1.86885,0.83672 -1.86885,1.86886 v 2.80329 m -4.19489,0 h 15.8652 c 1.11246,4e-5 1.96984,0.96291 1.85951,2.05432 l -0.0137,0.10608 -0.79777,5.0536 c -0.0715,0.45261 -0.076,0.91312 -0.0135,1.36672 l 0.0135,0.0906 0.79777,5.05359 c 0.17911,1.13428 -0.69748,2.16034 -1.84582,2.16041 h -15.8652 c -1.11245,-6e-5 -1.96983,-0.96291 -1.85951,-2.05432 l 0.0137,-0.10609 0.79779,-5.05359 c 0.0714,-0.45262 0.076,-0.91313 0.0134,-1.36672 l -0.0134,-0.0906 -0.79779,-5.0536 c -0.17909,-1.13428 0.6975,-2.16033 1.84583,-2.1604 z m 7.38432,3.455 c 0.32336,-0.24601 0.7732,-0.24601 1.09656,0 l 1.33782,1.01781 c 0.0626,0.0476 0.13122,0.0869 0.20413,0.11673 l 1.55864,0.63889 c 0.37672,0.15442 0.60164,0.54036 0.54825,0.94078 l -0.2208,1.65667 c -0.0103,0.0775 -0.0103,0.156 0,0.23352 l 0.2208,1.65667 c 0.0534,0.40043 -0.17153,0.78637 -0.54825,0.94078 l -1.55864,0.6389 c -0.0729,0.0298 -0.14155,0.0691 -0.20413,0.11673 l -1.33782,1.0178 c -0.32336,0.24601 -0.7732,0.24601 -1.09656,0 l -1.33781,-1.0178 c -0.0626,-0.0476 -0.13122,-0.0869 -0.20411,-0.11673 l -1.55867,-0.6389 c -0.37672,-0.15441 -0.60163,-0.54035 -0.54825,-0.94078 l 0.2208,-1.65667 c 0.0103,-0.0775 0.0103,-0.15601 0,-0.23352 l -0.2208,-1.65667 c -0.0534,-0.40042 0.17153,-0.78636 0.54825,-0.94078 l 1.55867,-0.63889 c 0.0728,-0.0298 0.14152,-0.0691 0.20411,-0.11673 z" /></g></g></svg>
