<?xml version="1.0" encoding="UTF-8" standalone="no"?>
<!-- Created with Inkscape (http://www.inkscape.org/) -->

<svg
   width="104.32375mm"
   height="53.404263mm"
   viewBox="0 0 104.32375 53.404263"
   version="1.1"
   id="svg1"
   xml:space="preserve"
   inkscape:version="1.4.1 (93de688d07, 2025-03-30)"
   sodipodi:docname="app_downloader_logo.svg"
   inkscape:export-filename="app_downloader_splash.png"
   inkscape:export-xdpi="96"
   inkscape:export-ydpi="96"
   xmlns:inkscape="http://www.inkscape.org/namespaces/inkscape"
   xmlns:sodipodi="http://sodipodi.sourceforge.net/DTD/sodipodi-0.dtd"
   xmlns="http://www.w3.org/2000/svg"
   xmlns:svg="http://www.w3.org/2000/svg"><sodipodi:namedview
     id="namedview1"
     pagecolor="#505050"
     bordercolor="#eeeeee"
     borderopacity="1"
     inkscape:showpageshadow="0"
     inkscape:pageopacity="0"
     inkscape:pagecheckerboard="0"
     inkscape:deskcolor="#505050"
     inkscape:document-units="mm"
     inkscape:zoom="2.8471663"
     inkscape:cx="193.70137"
     inkscape:cy="98.519008"
     inkscape:window-width="1920"
     inkscape:window-height="1008"
     inkscape:window-x="0"
     inkscape:window-y="0"
     inkscape:window-maximized="1"
     inkscape:current-layer="layer1" /><defs
     id="defs1" /><g
     inkscape:label="Layer 1"
     inkscape:groupmode="layer"
     id="layer1"
     transform="translate(-73.021675,-129.72653)"><rect
       style="fill:#000000;fill-opacity:1;stroke-width:0.908934;paint-order:stroke markers fill"
       id="rect1"
       width="104.32375"
       height="53.404263"
       x="73.021675"
       y="129.72653"
       ry="5.5196805" /><g
       id="g3"
       transform="translate(1.5135535,1.582753)"><g
         style="fill:none;stroke:#ffffff;stroke-width:1.26483;stroke-linecap:round;stroke-linejoin:round;stroke-dasharray:none"
         id="g1"
         transform="matrix(1.4958531,0,0,1.4958531,107.23332,127.89511)"><path
           d="M 15,5 H 9"
           id="path1"
           style="stroke-width:1.26483;stroke-dasharray:none" /><path
           d="m 15,9 v 3 h 4 L 12,19 5,12 H 9 V 9 Z"
           id="path2"
           style="stroke-width:1.26483;stroke-dasharray:none" /></g><path
         d="m 81.329253,172.78169 q -0.226594,0 -0.356077,-0.14027 -0.129482,-0.14028 -0.129482,-0.34529 0,-0.0863 0.05395,-0.2158 l 2.751501,-6.49571 q 0.07553,-0.17264 0.226594,-0.30212 0.161853,-0.14027 0.399238,-0.14027 h 0.107902 q 0.248174,0 0.399237,0.14027 0.151063,0.12948 0.226594,0.30212 l 2.751501,6.49571 q 0.05395,0.12948 0.05395,0.2158 0,0.20501 -0.129482,0.34529 -0.129482,0.14027 -0.356077,0.14027 -0.334496,0 -0.463978,-0.30213 l -0.701363,-1.68327 h -3.668668 l -0.701363,1.68327 q -0.129483,0.30213 -0.463979,0.30213 z m 1.542999,-2.88099 h 2.913354 l -1.456677,-3.50681 z m 6.754662,5.36273 q -0.205014,0 -0.345286,-0.15106 -0.140273,-0.14027 -0.140273,-0.34528 v -7.11075 q 0,-0.20501 0.140273,-0.34528 0.140272,-0.14028 0.345286,-0.14028 0.215804,0 0.356077,0.14028 0.140273,0.14027 0.140273,0.34528 v 0.28055 q 0.377657,-0.38845 0.830845,-0.60425 0.453188,-0.21581 1.014279,-0.21581 0.658202,0 1.251663,0.3345 0.593461,0.3345 0.971118,0.97112 0.388447,0.63662 0.388447,1.55379 0,0.91716 -0.388447,1.55379 -0.377657,0.63662 -0.971118,0.97111 -0.593461,0.3345 -1.251663,0.3345 -0.561091,0 -1.014279,-0.2158 -0.453188,-0.21581 -0.830845,-0.60426 v 2.75151 q 0,0.20501 -0.140273,0.34528 -0.140273,0.15106 -0.356077,0.15106 z m 2.201201,-3.34496 q 0.766104,0 1.262454,-0.49635 0.507139,-0.49635 0.507139,-1.44588 0,-0.96033 -0.507139,-1.44589 -0.49635,-0.49635 -1.262454,-0.49635 -0.52872,0 -0.960328,0.23738 -0.431608,0.2266 -0.744523,0.57189 v 2.26594 q 0.312915,0.34528 0.744523,0.58267 0.431608,0.22659 0.960328,0.22659 z m 4.607421,3.34496 q -0.205014,0 -0.345286,-0.15106 -0.140273,-0.14027 -0.140273,-0.34528 v -7.11075 q 0,-0.20501 0.140273,-0.34528 0.140272,-0.14028 0.345286,-0.14028 0.215804,0 0.356077,0.14028 0.140272,0.14027 0.140272,0.34528 v 0.28055 q 0.377657,-0.38845 0.830846,-0.60425 0.453188,-0.21581 1.014279,-0.21581 0.658202,0 1.25166,0.3345 0.59346,0.3345 0.97112,0.97112 0.38845,0.63662 0.38845,1.55379 0,0.91716 -0.38845,1.55379 -0.37766,0.63662 -0.97112,0.97111 -0.593458,0.3345 -1.25166,0.3345 -0.561091,0 -1.014279,-0.2158 -0.453189,-0.21581 -0.830846,-0.60426 v 2.75151 q 0,0.20501 -0.140272,0.34528 -0.140273,0.15106 -0.356077,0.15106 z m 2.201201,-3.34496 q 0.766104,0 1.262453,-0.49635 0.50714,-0.49635 0.50714,-1.44588 0,-0.96033 -0.50714,-1.44589 -0.496349,-0.49635 -1.262453,-0.49635 -0.52872,0 -0.960328,0.23738 -0.431608,0.2266 -0.744524,0.57189 v 2.26594 q 0.312916,0.34528 0.744524,0.58267 0.431608,0.22659 0.960328,0.22659 z m 7.607103,0.80927 q -0.20502,0 -0.34529,-0.14028 -0.14027,-0.14027 -0.14027,-0.34528 v -6.54965 q 0,-0.20502 0.14027,-0.34529 0.14027,-0.15106 0.34529,-0.15106 h 2.16883 q 0.97111,0 1.68327,0.33449 0.71215,0.32371 1.18692,0.87401 0.47477,0.53951 0.70136,1.2085 0.23739,0.66899 0.23739,1.34878 0,0.67978 -0.23739,1.34877 -0.22659,0.66899 -0.70136,1.2193 -0.47477,0.53951 -1.18692,0.874 -0.71216,0.32371 -1.68327,0.32371 z m 0.49635,-0.91717 h 1.55378 q 0.90638,0 1.56458,-0.35608 0.669,-0.36686 1.02507,-1.00348 0.36687,-0.64742 0.36687,-1.48905 0,-0.84164 -0.36687,-1.47826 -0.35607,-0.64741 -1.02507,-1.00349 -0.6582,-0.36687 -1.56458,-0.36687 h -1.55378 z m 9.15009,1.02507 q -0.83085,0 -1.45668,-0.35608 -0.62583,-0.36686 -0.97112,-1.00349 -0.33449,-0.64741 -0.33449,-1.49983 0,-0.85243 0.33449,-1.48905 0.34529,-0.64741 0.97112,-1.00349 0.62583,-0.36687 1.45668,-0.36687 0.83084,0 1.44589,0.36687 0.62583,0.35608 0.97111,1.00349 0.34529,0.63662 0.34529,1.48905 0,0.85242 -0.34529,1.49983 -0.34528,0.63663 -0.97111,1.00349 -0.61505,0.35608 -1.44589,0.35608 z m 0,-0.89559 q 0.41003,0 0.82005,-0.19422 0.41003,-0.19422 0.67979,-0.62583 0.28054,-0.4424 0.28054,-1.15455 0,-0.71216 -0.28054,-1.14377 -0.26976,-0.4316 -0.67979,-0.61504 -0.41002,-0.19422 -0.82005,-0.19422 -0.41003,0 -0.83085,0.19422 -0.41002,0.18344 -0.67978,0.61504 -0.26975,0.43161 -0.26975,1.14377 0,0.71215 0.26975,1.15455 0.26976,0.43161 0.67978,0.62583 0.42082,0.19422 0.83085,0.19422 z m 5.69722,0.84164 q -0.2158,0 -0.38844,-0.12948 -0.17265,-0.14028 -0.23739,-0.32371 l -1.53221,-4.48872 q -0.0324,-0.0971 -0.0324,-0.18344 0,-0.20501 0.14028,-0.34528 0.14027,-0.14028 0.34528,-0.14028 0.15106,0 0.26976,0.0755 0.12948,0.0755 0.17264,0.2158 l 1.26245,4.15423 1.25167,-4.05712 q 0.054,-0.17264 0.19422,-0.28054 0.15106,-0.10791 0.3345,-0.10791 0.18343,0 0.33449,0.10791 0.15107,0.1079 0.19423,0.28054 l 1.25166,4.05712 1.26245,-4.15423 q 0.0432,-0.14027 0.17265,-0.2158 0.12948,-0.0755 0.26975,-0.0755 0.20501,0 0.34529,0.14028 0.14027,0.14027 0.14027,0.34528 0,0.0863 -0.0324,0.18344 l -1.53221,4.48872 q -0.0647,0.18343 -0.23738,0.32371 -0.17265,0.12948 -0.38845,0.12948 -0.2158,0 -0.38845,-0.12948 -0.17264,-0.14028 -0.24817,-0.3345 l -1.14376,-3.57156 -1.14377,3.57156 q -0.0755,0.19422 -0.24817,0.3345 -0.17264,0.12948 -0.38845,0.12948 z m 7.39129,0 q -0.20501,0 -0.34529,-0.14027 -0.14027,-0.14028 -0.14027,-0.34529 v -4.629 q 0,-0.2158 0.14027,-0.35607 0.14028,-0.14028 0.34529,-0.14028 0.20501,0 0.34529,0.14028 0.15106,0.14027 0.15106,0.35607 v 0.4424 q 0.34528,-0.37766 0.80926,-0.67978 0.47477,-0.31292 1.19772,-0.31292 0.61504,0 1.04664,0.29134 0.43161,0.28054 0.65821,0.7661 0.22659,0.47477 0.22659,1.05744 v 3.06442 q 0,0.20501 -0.15106,0.34529 -0.14027,0.14027 -0.34529,0.14027 -0.20501,0 -0.34528,-0.14027 -0.14028,-0.14028 -0.14028,-0.34529 v -2.95652 q 0,-0.61504 -0.28054,-0.96032 -0.26976,-0.35608 -0.90638,-0.35608 -0.58267,0 -1.01428,0.31292 -0.43161,0.31291 -0.75531,0.72294 v 3.23706 q 0,0.20501 -0.15106,0.34529 -0.14028,0.14027 -0.34529,0.14027 z m 6.57122,0 q -0.20501,0 -0.34528,-0.14027 -0.14028,-0.14028 -0.14028,-0.34529 v -7.00284 q 0,-0.2158 0.14028,-0.35608 0.14027,-0.14027 0.34528,-0.14027 0.21581,0 0.35608,0.14027 0.14027,0.14028 0.14027,0.35608 v 7.00284 q 0,0.20501 -0.14027,0.34529 -0.14027,0.14027 -0.35608,0.14027 z m 4.629,0.054 q -0.83084,0 -1.45667,-0.35608 -0.62584,-0.36686 -0.97112,-1.00349 -0.3345,-0.64741 -0.3345,-1.49983 0,-0.85243 0.3345,-1.48905 0.34528,-0.64741 0.97112,-1.00349 0.62583,-0.36687 1.45667,-0.36687 0.83085,0 1.44589,0.36687 0.62583,0.35608 0.97112,1.00349 0.34528,0.63662 0.34528,1.48905 0,0.85242 -0.34528,1.49983 -0.34529,0.63663 -0.97112,1.00349 -0.61504,0.35608 -1.44589,0.35608 z m 0,-0.89559 q 0.41003,0 0.82006,-0.19422 0.41003,-0.19422 0.67978,-0.62583 0.28055,-0.4424 0.28055,-1.15455 0,-0.71216 -0.28055,-1.14377 -0.26975,-0.4316 -0.67978,-0.61504 -0.41003,-0.19422 -0.82006,-0.19422 -0.41002,0 -0.83084,0.19422 -0.41003,0.18344 -0.67978,0.61504 -0.26976,0.43161 -0.26976,1.14377 0,0.71215 0.26976,1.15455 0.26975,0.43161 0.67978,0.62583 0.42082,0.19422 0.83084,0.19422 z m 5.53537,0.89559 q -0.46397,0 -0.874,-0.19422 -0.39924,-0.19423 -0.64741,-0.5503 -0.23739,-0.36687 -0.23739,-0.87401 0,-0.7661 0.60425,-1.25166 0.61504,-0.49635 1.8775,-0.49635 h 1.30561 v -0.0863 q 0,-0.72295 -0.35607,-1.02507 -0.35608,-0.31292 -1.08982,-0.31292 -0.45318,0 -0.79847,0.0863 -0.3345,0.0755 -0.63662,0.17265 -0.0863,0.0216 -0.14027,0.0216 -0.16186,0 -0.28055,-0.1187 -0.11869,-0.11869 -0.11869,-0.29133 0,-0.29134 0.28054,-0.41003 0.37766,-0.16185 0.83085,-0.26975 0.46398,-0.1187 1.03586,-0.1187 0.78768,0 1.28403,0.31292 0.49635,0.31291 0.73374,0.79847 0.23738,0.48556 0.23738,1.01428 v 3.05363 q 0,0.20501 -0.15106,0.34529 -0.14028,0.14027 -0.34529,0.14027 -0.20501,0 -0.34529,-0.14027 -0.14027,-0.14028 -0.14027,-0.34529 v -0.28055 q -0.29133,0.30213 -0.77689,0.56109 -0.48556,0.25897 -1.25167,0.25897 z m 0.36687,-0.86322 q 0.50714,0 0.94954,-0.24817 0.4424,-0.24818 0.71215,-0.56109 v -0.90638 h -1.17613 q -0.75531,0 -1.19771,0.19423 -0.43161,0.19422 -0.43161,0.6582 0,0.34528 0.23738,0.60425 0.24818,0.25896 0.90638,0.25896 z m 6.57124,0.86322 q -0.64741,0 -1.25166,-0.3345 -0.59347,-0.33449 -0.98191,-0.97111 -0.37766,-0.63663 -0.37766,-1.55379 0,-0.91717 0.37766,-1.55379 0.38844,-0.63662 0.98191,-0.97112 0.60425,-0.3345 1.25166,-0.3345 0.57188,0 1.02507,0.21581 0.45319,0.2158 0.82005,0.60425 v -2.6436 q 0,-0.2158 0.14028,-0.35608 0.15106,-0.14027 0.35607,-0.14027 0.20502,0 0.34529,0.14027 0.14027,0.14028 0.14027,0.35608 v 7.00284 q 0,0.20501 -0.14027,0.34529 -0.14027,0.14027 -0.34529,0.14027 -0.20501,0 -0.35607,-0.14027 -0.14028,-0.14028 -0.14028,-0.34529 v -0.28055 q -0.36686,0.38845 -0.82005,0.60426 -0.45319,0.2158 -1.02507,0.2158 z m 0.14027,-0.91717 q 0.52872,0 0.96033,-0.22659 0.43161,-0.23739 0.74452,-0.58267 v -2.26594 q -0.31291,-0.34529 -0.74452,-0.57189 -0.43161,-0.23738 -0.96033,-0.23738 -0.7661,0 -1.27324,0.49635 -0.49635,0.48556 -0.49635,1.44589 0,0.94953 0.49635,1.44588 0.50714,0.49635 1.27324,0.49635 z m 6.85178,0.91717 q -1.31641,0 -2.06093,-0.74452 -0.73373,-0.75532 -0.73373,-2.11488 0,-0.73374 0.26975,-1.38115 0.26976,-0.6582 0.84164,-1.06823 0.57188,-0.41003 1.46746,-0.41003 0.83085,0 1.40273,0.38845 0.57188,0.37766 0.86322,0.9927 0.30212,0.61504 0.30212,1.33798 0,0.20502 -0.14027,0.34529 -0.12948,0.14027 -0.35608,0.14027 h -3.65787 q 0.0863,0.72295 0.5503,1.16534 0.46397,0.43161 1.33798,0.43161 0.48556,0 0.82006,-0.0863 0.33449,-0.0971 0.63662,-0.24817 0.0863,-0.0432 0.19422,-0.0432 0.17264,0 0.30213,0.11869 0.12948,0.11869 0.12948,0.30212 0,0.12949 -0.0863,0.23739 -0.0755,0.0971 -0.19423,0.16185 -0.35607,0.20501 -0.77689,0.34529 -0.41003,0.12948 -1.11139,0.12948 z m -1.80196,-3.31259 h 3.1831 q -0.0324,-0.56109 -0.29133,-0.90638 -0.24818,-0.34529 -0.60425,-0.50714 -0.35608,-0.16185 -0.70137,-0.16185 -0.34528,0 -0.70136,0.16185 -0.35607,0.16185 -0.60425,0.50714 -0.24817,0.34529 -0.28054,0.90638 z m 5.93461,3.25864 q -0.20502,0 -0.34529,-0.14027 -0.14027,-0.14028 -0.14027,-0.34529 v -4.629 q 0,-0.20501 0.14027,-0.34528 0.14027,-0.15107 0.34529,-0.15107 0.20501,0 0.34528,0.15107 0.15107,0.14027 0.15107,0.34528 v 0.46398 q 0.29133,-0.38845 0.71215,-0.70136 0.42082,-0.31292 0.98191,-0.31292 h 0.0539 q 0.20501,0 0.33449,0.14028 0.14028,0.14027 0.14028,0.34528 0,0.20502 -0.14028,0.3345 -0.14027,0.12948 -0.35607,0.12948 h -0.0539 q -0.52872,0 -0.96033,0.26976 -0.43161,0.25896 -0.71215,0.67978 v 3.28022 q 0,0.20501 -0.15107,0.34529 -0.14027,0.14027 -0.34528,0.14027 z"
         id="text1"
         style="font-size:10.7902px;font-family:'Varela Round';-inkscape-font-specification:'Varela Round, Normal';fill:#ffffff;stroke-width:0.461337;paint-order:stroke markers fill"
         aria-label="App Downloader" /></g></g></svg>
