<?xml version="1.0" encoding="UTF-8" standalone="no"?>
<svg
   width="96"
   height="96"
   viewBox="0 0 96 96"
   fill="none"
   version="1.1"
   id="svg5"
   sodipodi:docname="appdownloader.svg"
   inkscape:version="1.4.1 (93de688d07, 2025-03-30)"
   xmlns:inkscape="http://www.inkscape.org/namespaces/inkscape"
   xmlns:sodipodi="http://sodipodi.sourceforge.net/DTD/sodipodi-0.dtd"
   xmlns="http://www.w3.org/2000/svg"
   xmlns:svg="http://www.w3.org/2000/svg">
  <sodipodi:namedview
     id="namedview5"
     pagecolor="#505050"
     bordercolor="#eeeeee"
     borderopacity="1"
     inkscape:showpageshadow="0"
     inkscape:pageopacity="0"
     inkscape:pagecheckerboard="0"
     inkscape:deskcolor="#505050"
     inkscape:zoom="5.8851908"
     inkscape:cx="48.851432"
     inkscape:cy="35.25799"
     inkscape:window-width="1920"
     inkscape:window-height="1008"
     inkscape:window-x="0"
     inkscape:window-y="0"
     inkscape:window-maximized="1"
     inkscape:current-layer="svg5" />
  <path
     id="path5"
     style="stroke:#ffffff;stroke-opacity:1;stroke-width:8;stroke-dasharray:none"
     d="M 64,24 V 12 C 64,7.58172 60.4183,4 56,4 H 40 c -4.4183,0 -8,3.58172 -8,8 v 12 m -17.957,0 h 67.914 c 4.7621,2e-4 8.4323,4.1219 7.96,8.7939 l -0.0586,0.4541 -3.415,21.6329 c -0.306,1.9375 -0.3254,3.9088 -0.0577,5.8505 l 0.0577,0.3877 3.415,21.6329 C 90.6251,87.6075 86.8727,91.9997 81.957,92 H 14.043 C 9.28093,91.9998 5.61074,87.8781 6.08301,83.2061 L 6.1416,82.752 9.55664,61.1191 C 9.86257,59.1816 9.88196,57.2103 9.61426,55.2686 L 9.55664,54.8809 6.1416,33.248 C 5.37493,28.3925 9.12732,24.0003 14.043,24 Z m 31.61,14.7898 c 1.3842,-1.0531 3.3098,-1.0531 4.694,0 l 5.7268,4.3569 c 0.2679,0.2038 0.5617,0.3718 0.8738,0.4997 l 6.6721,2.7349 c 1.6126,0.661 2.5754,2.3131 2.3469,4.0272 l -0.9452,7.0917 c -0.0443,0.3318 -0.0443,0.6678 0,0.9996 l 0.9452,7.0917 c 0.2285,1.7141 -0.7343,3.3662 -2.3469,4.0272 l -6.6721,2.7349 c -0.3121,0.1279 -0.6059,0.2959 -0.8738,0.4997 l -5.7268,4.3569 c -1.3842,1.0531 -3.3098,1.0531 -4.694,0 l -5.7268,-4.3569 c -0.2679,-0.2038 -0.5617,-0.3718 -0.8737,-0.4997 l -6.6722,-2.7349 c -1.6126,-0.661 -2.5754,-2.3131 -2.3469,-4.0272 l 0.9452,-7.0917 c 0.0443,-0.3318 0.0443,-0.6678 0,-0.9996 l -0.9452,-7.0917 c -0.2285,-1.7141 0.7343,-3.3662 2.3469,-4.0272 l 6.6722,-2.7349 c 0.312,-0.1279 0.6058,-0.2959 0.8737,-0.4997 z" />
  <defs
     id="defs5" />
</svg>
